<svg width="221" height="99" viewBox="0 0 221 99" fill="none" xmlns="http://www.w3.org/2000/svg">
<path d="M10.968 48.944C8.792 48.944 6.944 48.656 5.424 48.08C3.92 47.504 2.776 46.672 1.992 45.584C1.208 44.48 0.816 43.136 0.816 41.552C0.816 39.968 1.208 38.632 1.992 37.544C2.776 36.44 3.92 35.6 5.424 35.024C6.944 34.448 8.792 34.16 10.968 34.16C11 34.16 11.088 34.16 11.232 34.16C11.392 34.16 11.544 34.16 11.688 34.16C11.848 34.16 11.936 34.16 11.952 34.16C14.112 34.16 15.936 34.448 17.424 35.024C18.928 35.6 20.064 36.44 20.832 37.544C21.6 38.648 21.984 39.984 21.984 41.552C21.984 43.104 21.6 44.44 20.832 45.56C20.08 46.664 18.968 47.504 17.496 48.08C16.04 48.656 14.256 48.944 12.144 48.944C12.096 48.944 11.984 48.944 11.808 48.944C11.632 48.944 11.456 48.944 11.28 48.944C11.12 48.944 11.016 48.944 10.968 48.944ZM11.328 45.944C11.376 45.944 11.44 45.944 11.52 45.944C11.6 45.944 11.656 45.944 11.688 45.944C13.16 45.944 14.376 45.784 15.336 45.464C16.312 45.128 17.04 44.64 17.52 44C18 43.344 18.24 42.52 18.24 41.528C18.24 40.536 17.992 39.72 17.496 39.08C17 38.44 16.272 37.968 15.312 37.664C14.368 37.344 13.176 37.184 11.736 37.184C11.704 37.184 11.64 37.184 11.544 37.184C11.464 37.184 11.392 37.184 11.328 37.184C9.808 37.184 8.552 37.336 7.56 37.64C6.568 37.944 5.824 38.424 5.328 39.08C4.832 39.72 4.584 40.544 4.584 41.552C4.584 42.56 4.848 43.392 5.376 44.048C5.904 44.688 6.664 45.168 7.656 45.488C8.664 45.792 9.888 45.944 11.328 45.944ZM9.624 50.744V32.48H13.2V50.744H9.624ZM24.6047 50V37.088H28.3247V44.768L34.6127 37.088H38.0447V50H34.3247V42.32L28.0607 50H24.6047ZM40.0118 49.976L40.2038 46.904C40.2998 46.92 40.3958 46.936 40.4918 46.952C40.5878 46.952 40.6758 46.952 40.7558 46.952C41.2038 46.952 41.5558 46.824 41.8118 46.568C42.0678 46.312 42.2598 45.968 42.3878 45.536C42.5158 45.088 42.6038 44.584 42.6518 44.024C42.7158 43.464 42.7638 42.88 42.7958 42.272L42.9878 37.088H54.0278V50H50.2838V39.248L51.1238 40.16H45.4598L46.2518 39.2L46.0838 42.44C46.0358 43.592 45.9398 44.648 45.7958 45.608C45.6678 46.568 45.4518 47.4 45.1478 48.104C44.8438 48.792 44.4358 49.328 43.9238 49.712C43.4118 50.08 42.7558 50.264 41.9558 50.264C41.6678 50.264 41.3638 50.24 41.0438 50.192C40.7238 50.144 40.3798 50.072 40.0118 49.976ZM64.6121 41.216C66.3081 41.232 67.5961 41.616 68.4761 42.368C69.3721 43.104 69.8201 44.152 69.8201 45.512C69.8201 46.936 69.3161 48.048 68.3081 48.848C67.3001 49.632 65.9001 50.024 64.1081 50.024L57.6281 50V37.088H61.3481V41.216H64.6121ZM63.7721 47.36C64.4921 47.376 65.0441 47.224 65.4281 46.904C65.8121 46.584 66.0041 46.104 66.0041 45.464C66.0041 44.824 65.8121 44.368 65.4281 44.096C65.0441 43.808 64.4921 43.656 63.7721 43.64L61.3481 43.616V47.36H63.7721ZM73.7709 50V39.296L74.6109 40.16H69.4029V37.088H81.8589V40.16H76.6509L77.4909 39.296V50H73.7709ZM91.4627 50.192C90.3747 50.192 89.4227 49.952 88.6067 49.472C87.7907 48.992 87.1507 48.264 86.6867 47.288C86.2387 46.296 86.0147 45.048 86.0147 43.544C86.0147 42.024 86.2307 40.776 86.6627 39.8C87.0947 38.824 87.7187 38.096 88.5347 37.616C89.3507 37.136 90.3267 36.896 91.4627 36.896C92.6787 36.896 93.7667 37.176 94.7267 37.736C95.7027 38.28 96.4707 39.048 97.0307 40.04C97.6067 41.032 97.8947 42.2 97.8947 43.544C97.8947 44.904 97.6067 46.08 97.0307 47.072C96.4707 48.064 95.7027 48.832 94.7267 49.376C93.7667 49.92 92.6787 50.192 91.4627 50.192ZM83.8307 54.656V37.088H87.4067V39.728L87.3347 43.568L87.5747 47.384V54.656H83.8307ZM90.8147 47.12C91.4387 47.12 91.9907 46.976 92.4707 46.688C92.9667 46.4 93.3587 45.992 93.6467 45.464C93.9507 44.92 94.1027 44.28 94.1027 43.544C94.1027 42.792 93.9507 42.152 93.6467 41.624C93.3587 41.096 92.9667 40.688 92.4707 40.4C91.9907 40.112 91.4387 39.968 90.8147 39.968C90.1907 39.968 89.6307 40.112 89.1347 40.4C88.6387 40.688 88.2467 41.096 87.9587 41.624C87.6707 42.152 87.5267 42.792 87.5267 43.544C87.5267 44.28 87.6707 44.92 87.9587 45.464C88.2467 45.992 88.6387 46.4 89.1347 46.688C89.6307 46.976 90.1907 47.12 90.8147 47.12ZM113.815 50V37.088H117.535V50H113.815ZM107.311 41.216C109.007 41.232 110.279 41.616 111.127 42.368C111.991 43.104 112.423 44.152 112.423 45.512C112.423 46.936 111.935 48.048 110.959 48.848C109.983 49.632 108.599 50.024 106.807 50.024L100.519 50V37.088H104.239V41.216H107.311ZM106.471 47.36C107.191 47.376 107.743 47.224 108.127 46.904C108.511 46.584 108.703 46.104 108.703 45.464C108.703 44.824 108.511 44.368 108.127 44.096C107.743 43.808 107.191 43.656 106.471 43.64L104.239 43.616V47.36H106.471Z" fill="#012D32"/>
<path d="M136 32H193.714M145.619 46.1429H184.095M155.238 60.2857H174.476" stroke="#012D32" stroke-width="4" stroke-linecap="round" stroke-linejoin="round"/>
</svg>
