<svg width="84" height="84" viewBox="0 0 84 84" fill="none" xmlns="http://www.w3.org/2000/svg">
<circle cx="42" cy="42" r="41.5" fill="white" stroke="#012D32"/>
<circle cx="42" cy="42" r="39.5" fill="#012D32" stroke="#012D32"/>
<path d="M49.3633 24.4683L46.7266 29.5225H48.3127C47.7201 31.03 46.7807 32.3388 45.5884 33.3182C44.3961 34.2975 42.9926 34.913 41.5182 35.1032V21.8692H43.5195C43.6648 21.8693 43.8083 21.8344 43.9401 21.7669C44.0719 21.6994 44.1889 21.601 44.283 21.4784C44.377 21.3558 44.4458 21.2119 44.4846 21.0569C44.5234 20.9019 44.5313 20.7394 44.5077 20.5807C44.4306 20.0337 43.9688 19.6518 43.4685 19.6518H41.5182V18.3162C42.034 18.0648 42.4586 17.6287 42.7238 17.078C42.989 16.5273 43.0794 15.8938 42.9807 15.2793C42.8096 14.1886 42.0326 13.2897 41.0544 13.0636C40.6889 12.9754 40.3102 12.979 39.9461 13.0741C39.582 13.1692 39.2418 13.3534 38.9503 13.6132C38.6589 13.873 38.4237 14.2018 38.262 14.5755C38.1003 14.9491 38.0163 15.3581 38.0159 15.7725C38.0159 16.9086 38.6363 17.884 39.5169 18.3162V19.6518H37.5666C37.0663 19.6518 36.6045 20.0337 36.5275 20.5807C36.5039 20.7394 36.5119 20.9018 36.5507 21.0568C36.5896 21.2117 36.6584 21.3554 36.7524 21.478C36.8464 21.6005 36.9634 21.6989 37.0952 21.7664C37.227 21.8338 37.3704 21.8687 37.5156 21.8686H39.5169V35.1032C36.55 34.7098 33.9283 32.5761 32.7225 29.5225H34.2735L31.6368 24.4683L29.0001 29.5225H30.6411C30.6411 29.6555 30.6681 29.7808 30.7062 29.916C32.043 34.6865 38.9931 38.3225 40.2619 38.9515C40.3244 38.9831 40.3922 38.9996 40.4608 39C40.5295 39.0004 40.5974 38.9846 40.6602 38.9538C41.95 38.3275 49.0972 34.6566 50.4591 29.5225H52.0001L49.3633 24.4683ZM40.5176 15.2189C40.7928 15.2189 41.0179 15.4683 41.0179 15.7731C41.0179 16.0779 40.7928 16.3272 40.5176 16.3272C40.2424 16.3272 40.0172 16.0779 40.0172 15.7731C40.0172 15.4683 40.2424 15.2189 40.5176 15.2189Z" fill="white"/>
<path d="M21.3793 47.252C21.3793 46.804 21.3233 46.436 21.2113 46.148C21.0993 45.852 20.9313 45.632 20.7073 45.488C20.4913 45.344 20.2153 45.276 19.8793 45.284H19.1473V51.212C19.1473 51.428 19.1433 51.628 19.1353 51.812C19.1273 51.996 19.1153 52.14 19.0993 52.244C19.2513 52.236 19.4233 52.228 19.6153 52.22C19.8153 52.212 19.9673 52.208 20.0713 52.208V53H16.7953V52.34C17.0193 52.332 17.1913 52.292 17.3113 52.22C17.4313 52.148 17.5153 52.028 17.5633 51.86C17.6113 51.692 17.6353 51.456 17.6353 51.152L17.6473 45.296H16.8673C16.3953 45.304 16.0353 45.464 15.7873 45.776C15.5393 46.088 15.4153 46.58 15.4153 47.252H14.7433L14.8033 44.6H21.9913L22.0633 47.252H21.3793ZM25.1552 53.192C24.5872 53.192 24.0712 53.068 23.6072 52.82C23.1432 52.564 22.7752 52.208 22.5032 51.752C22.2392 51.288 22.1072 50.748 22.1072 50.132C22.1072 49.484 22.2432 48.908 22.5152 48.404C22.7872 47.9 23.1512 47.508 23.6072 47.228C24.0712 46.948 24.5792 46.808 25.1312 46.808C25.6992 46.808 26.2112 46.936 26.6672 47.192C27.1232 47.448 27.4832 47.804 27.7472 48.26C28.0192 48.716 28.1552 49.256 28.1552 49.88C28.1552 50.536 28.0232 51.116 27.7592 51.62C27.5032 52.116 27.1472 52.504 26.6912 52.784C26.2432 53.056 25.7312 53.192 25.1552 53.192ZM25.2152 52.46C25.5752 52.46 25.8512 52.348 26.0432 52.124C26.2352 51.9 26.3672 51.616 26.4392 51.272C26.5192 50.92 26.5592 50.56 26.5592 50.192C26.5592 49.88 26.5312 49.564 26.4752 49.244C26.4272 48.924 26.3472 48.636 26.2352 48.38C26.1232 48.116 25.9752 47.908 25.7912 47.756C25.6072 47.596 25.3832 47.516 25.1192 47.516C24.7672 47.524 24.4872 47.64 24.2792 47.864C24.0712 48.088 23.9192 48.372 23.8232 48.716C23.7352 49.06 23.6912 49.424 23.6912 49.808C23.6912 50.24 23.7432 50.664 23.8472 51.08C23.9512 51.488 24.1152 51.824 24.3392 52.088C24.5632 52.344 24.8552 52.468 25.2152 52.46ZM28.9504 56.06V55.424C29.1824 55.424 29.3464 55.372 29.4424 55.268C29.5464 55.172 29.6104 55.032 29.6344 54.848C29.6584 54.664 29.6704 54.456 29.6704 54.224L29.6824 48.908C29.6824 48.764 29.6824 48.612 29.6824 48.452C29.6904 48.292 29.7064 48.128 29.7304 47.96C29.5944 47.968 29.4424 47.976 29.2744 47.984C29.1144 47.992 28.9824 48 28.8784 48.008V47.228C29.2464 47.228 29.5424 47.212 29.7664 47.18C29.9984 47.14 30.1744 47.092 30.2944 47.036C30.4224 46.98 30.5144 46.928 30.5704 46.88H31.0864C31.1024 46.96 31.1144 47.056 31.1224 47.168C31.1304 47.28 31.1384 47.384 31.1464 47.48C31.4104 47.248 31.6904 47.08 31.9864 46.976C32.2824 46.864 32.5664 46.808 32.8384 46.808C33.3184 46.808 33.7464 46.932 34.1224 47.18C34.4984 47.42 34.7944 47.768 35.0104 48.224C35.2264 48.672 35.3344 49.204 35.3344 49.82C35.3344 50.476 35.2024 51.06 34.9384 51.572C34.6824 52.076 34.3304 52.472 33.8824 52.76C33.4344 53.048 32.9184 53.192 32.3344 53.192C32.0944 53.192 31.8784 53.164 31.6864 53.108C31.4944 53.06 31.3144 52.996 31.1464 52.916V54.344C31.1464 54.472 31.1424 54.624 31.1344 54.8C31.1344 54.984 31.1224 55.16 31.0984 55.328C31.2264 55.312 31.3624 55.3 31.5064 55.292C31.6504 55.292 31.7704 55.292 31.8664 55.292V56.06H28.9504ZM32.2024 52.436C32.5704 52.428 32.8664 52.316 33.0904 52.1C33.3224 51.876 33.4904 51.58 33.5944 51.212C33.6984 50.844 33.7504 50.444 33.7504 50.012C33.7504 49.62 33.6984 49.248 33.5944 48.896C33.4984 48.544 33.3424 48.26 33.1264 48.044C32.9104 47.828 32.6224 47.72 32.2624 47.72C32.0384 47.728 31.8264 47.784 31.6264 47.888C31.4344 47.992 31.2744 48.128 31.1464 48.296C31.1464 48.472 31.1464 48.652 31.1464 48.836C31.1464 49.02 31.1464 49.216 31.1464 49.424C31.1464 49.632 31.1464 49.868 31.1464 50.132C31.1464 50.388 31.1464 50.68 31.1464 51.008C31.1464 51.336 31.1464 51.712 31.1464 52.136C31.2744 52.224 31.4304 52.296 31.6144 52.352C31.7984 52.408 31.9944 52.436 32.2024 52.436ZM41.3981 53V52.34C41.6221 52.332 41.7941 52.292 41.9141 52.22C42.0341 52.148 42.1181 52.028 42.1661 51.86C42.2141 51.692 42.2381 51.456 42.2381 51.152V50L40.0781 46.568C39.9341 46.344 39.8141 46.12 39.7181 45.896C39.6221 45.672 39.5661 45.492 39.5501 45.356C39.4221 45.364 39.3101 45.372 39.2141 45.38C39.1181 45.38 39.0181 45.384 38.9141 45.392V44.6H42.3101V45.26C42.0301 45.252 41.8141 45.288 41.6621 45.368C41.5181 45.448 41.4381 45.568 41.4221 45.728C41.4141 45.88 41.4821 46.076 41.6261 46.316L42.5501 47.816C42.5981 47.896 42.6621 48.004 42.7421 48.14C42.8221 48.268 42.9021 48.408 42.9821 48.56C43.0701 48.704 43.1461 48.836 43.2101 48.956H43.2221C43.2781 48.836 43.3501 48.684 43.4381 48.5C43.5341 48.316 43.6461 48.1 43.7741 47.852L44.5301 46.388C44.5701 46.3 44.6221 46.192 44.6861 46.064C44.7581 45.936 44.8341 45.808 44.9141 45.68C44.9941 45.544 45.0701 45.432 45.1421 45.344C45.0061 45.352 44.8421 45.36 44.6501 45.368C44.4661 45.376 44.3181 45.384 44.2061 45.392V44.6H46.7981V45.26C46.4781 45.292 46.2101 45.412 45.9941 45.62C45.7781 45.828 45.5461 46.164 45.2981 46.628C45.0341 47.132 44.7701 47.632 44.5061 48.128C44.2501 48.616 43.9981 49.1 43.7501 49.58C43.7501 49.708 43.7501 49.848 43.7501 50C43.7501 50.152 43.7501 50.308 43.7501 50.468C43.7501 50.628 43.7501 50.776 43.7501 50.912C43.7501 51.04 43.7501 51.14 43.7501 51.212C43.7501 51.428 43.7461 51.628 43.7381 51.812C43.7301 51.996 43.7181 52.14 43.7021 52.244C43.8461 52.236 44.0141 52.228 44.2061 52.22C44.4061 52.212 44.5621 52.208 44.6741 52.208V53H41.3981ZM49.8933 53C49.8693 52.88 49.8533 52.78 49.8453 52.7C49.8453 52.612 49.8413 52.512 49.8333 52.4C49.5613 52.672 49.2693 52.872 48.9573 53C48.6533 53.128 48.3373 53.192 48.0093 53.192C47.4653 53.192 47.0453 53.044 46.7493 52.748C46.4613 52.452 46.3173 52.088 46.3173 51.656C46.3173 51.272 46.4213 50.948 46.6293 50.684C46.8373 50.412 47.1093 50.192 47.4453 50.024C47.7813 49.848 48.1533 49.716 48.5613 49.628C48.9693 49.532 49.3733 49.48 49.7733 49.472V48.812C49.7733 48.58 49.7453 48.368 49.6893 48.176C49.6413 47.976 49.5493 47.82 49.4133 47.708C49.2773 47.588 49.0773 47.528 48.8133 47.528C48.6373 47.536 48.4573 47.576 48.2733 47.648C48.0973 47.712 47.9573 47.816 47.8533 47.96C47.9173 48.032 47.9573 48.112 47.9733 48.2C47.9893 48.28 47.9973 48.352 47.9973 48.416C47.9973 48.56 47.9413 48.712 47.8293 48.872C47.7173 49.024 47.5373 49.096 47.2893 49.088C47.0733 49.08 46.9053 49.004 46.7853 48.86C46.6733 48.716 46.6173 48.544 46.6173 48.344C46.6173 48.04 46.7253 47.776 46.9413 47.552C47.1653 47.32 47.4653 47.14 47.8413 47.012C48.2173 46.876 48.6373 46.808 49.1013 46.808C49.7893 46.808 50.3173 46.988 50.6853 47.348C51.0533 47.708 51.2333 48.284 51.2253 49.076C51.2253 49.356 51.2253 49.612 51.2253 49.844C51.2253 50.068 51.2213 50.296 51.2133 50.528C51.2133 50.752 51.2133 51.004 51.2133 51.284C51.2133 51.404 51.2093 51.556 51.2013 51.74C51.1933 51.916 51.1813 52.092 51.1653 52.268C51.3093 52.252 51.4533 52.244 51.5973 52.244C51.7493 52.236 51.8733 52.228 51.9693 52.22V53H49.8933ZM49.7613 50.18C49.5213 50.196 49.2853 50.236 49.0533 50.3C48.8213 50.356 48.6133 50.436 48.4293 50.54C48.2453 50.644 48.0973 50.776 47.9853 50.936C47.8813 51.088 47.8333 51.264 47.8413 51.464C47.8493 51.712 47.9293 51.896 48.0813 52.016C48.2333 52.128 48.4093 52.184 48.6093 52.184C48.8413 52.184 49.0493 52.136 49.2333 52.04C49.4253 51.944 49.6013 51.816 49.7613 51.656C49.7613 51.576 49.7613 51.492 49.7613 51.404C49.7613 51.316 49.7613 51.228 49.7613 51.14C49.7613 51.028 49.7613 50.888 49.7613 50.72C49.7613 50.552 49.7613 50.372 49.7613 50.18ZM55.5751 53.192C55.0391 53.192 54.5431 53.072 54.0871 52.832C53.6391 52.592 53.2791 52.244 53.0071 51.788C52.7431 51.324 52.6111 50.768 52.6111 50.12C52.6111 49.68 52.6871 49.264 52.8391 48.872C52.9911 48.472 53.2031 48.12 53.4751 47.816C53.7551 47.504 54.0871 47.26 54.4711 47.084C54.8551 46.9 55.2791 46.808 55.7431 46.808C56.2311 46.808 56.6431 46.884 56.9791 47.036C57.3151 47.18 57.5711 47.376 57.7471 47.624C57.9231 47.864 58.0111 48.12 58.0111 48.392C58.0111 48.608 57.9471 48.796 57.8191 48.956C57.6991 49.116 57.5231 49.2 57.2911 49.208C57.0191 49.216 56.8271 49.14 56.7151 48.98C56.6111 48.812 56.5591 48.656 56.5591 48.512C56.5591 48.432 56.5711 48.348 56.5951 48.26C56.6191 48.164 56.6591 48.076 56.7151 47.996C56.6591 47.852 56.5671 47.748 56.4391 47.684C56.3111 47.612 56.1791 47.564 56.0431 47.54C55.9071 47.516 55.7991 47.508 55.7191 47.516C55.2791 47.532 54.9151 47.732 54.6271 48.116C54.3391 48.5 54.1951 49.06 54.1951 49.796C54.1951 50.236 54.2551 50.644 54.3751 51.02C54.5031 51.388 54.6951 51.688 54.9511 51.92C55.2071 52.144 55.5351 52.26 55.9351 52.268C56.2871 52.276 56.6271 52.192 56.9551 52.016C57.2831 51.832 57.5511 51.596 57.7591 51.308L58.2391 51.752C57.9751 52.128 57.6911 52.42 57.3871 52.628C57.0831 52.836 56.7751 52.98 56.4631 53.06C56.1591 53.148 55.8631 53.192 55.5751 53.192ZM62.6604 52.364C62.8924 52.364 63.0564 52.316 63.1524 52.22C63.2484 52.116 63.3084 51.972 63.3324 51.788C63.3564 51.604 63.3684 51.396 63.3684 51.164V49.46C63.3684 48.884 63.2764 48.456 63.0924 48.176C62.9164 47.896 62.6404 47.756 62.2644 47.756C62.0324 47.756 61.8004 47.808 61.5684 47.912C61.3444 48.016 61.1604 48.144 61.0164 48.296V51.284C61.0164 51.412 61.0124 51.568 61.0044 51.752C60.9964 51.928 60.9804 52.1 60.9564 52.268C61.0924 52.252 61.2324 52.244 61.3764 52.244C61.5204 52.236 61.6404 52.232 61.7364 52.232V53H58.8204V52.364C59.0524 52.364 59.2164 52.316 59.3124 52.22C59.4164 52.116 59.4764 51.972 59.4924 51.788C59.5164 51.604 59.5284 51.396 59.5284 51.164V45.98C59.5284 45.844 59.5324 45.696 59.5404 45.536C59.5484 45.368 59.5604 45.196 59.5764 45.02C59.4404 45.028 59.2924 45.036 59.1324 45.044C58.9724 45.052 58.8404 45.06 58.7364 45.068V44.288C59.1044 44.288 59.4044 44.272 59.6364 44.24C59.8684 44.2 60.0484 44.152 60.1764 44.096C60.3124 44.04 60.4084 43.988 60.4644 43.94H61.0164V47.516C61.1764 47.38 61.3604 47.26 61.5684 47.156C61.7844 47.052 62.0044 46.968 62.2284 46.904C62.4524 46.84 62.6564 46.808 62.8404 46.808C63.5604 46.808 64.0724 47.02 64.3764 47.444C64.6804 47.868 64.8364 48.544 64.8444 49.472L64.8564 51.284C64.8564 51.412 64.8524 51.568 64.8444 51.752C64.8364 51.928 64.8244 52.1 64.8084 52.268C64.9364 52.252 65.0684 52.244 65.2044 52.244C65.3484 52.236 65.4724 52.232 65.5764 52.232V53H62.6604V52.364ZM68.6174 53.192C68.3934 53.192 68.1734 53.164 67.9574 53.108C67.7494 53.052 67.5574 52.948 67.3814 52.796C67.2134 52.644 67.0774 52.42 66.9734 52.124C66.8694 51.82 66.8174 51.42 66.8174 50.924L66.8414 47.828L65.9894 47.84V47C66.2294 46.992 66.4614 46.912 66.6854 46.76C66.9094 46.6 67.1054 46.392 67.2734 46.136C67.4414 45.88 67.5534 45.608 67.6094 45.32H68.3414L68.3294 47H70.0214V47.768L68.3294 47.804L68.3174 50.888C68.3174 51.128 68.3374 51.352 68.3774 51.56C68.4254 51.76 68.5054 51.92 68.6174 52.04C68.7374 52.16 68.8974 52.22 69.0974 52.22C69.2494 52.22 69.4214 52.172 69.6134 52.076C69.8134 51.98 70.0134 51.788 70.2134 51.5L70.7054 51.944C70.5054 52.248 70.2974 52.484 70.0814 52.652C69.8734 52.82 69.6694 52.944 69.4694 53.024C69.2774 53.104 69.1054 53.152 68.9534 53.168C68.8014 53.184 68.6894 53.192 68.6174 53.192ZM29.8935 68V67.34C30.1175 67.332 30.2895 67.296 30.4095 67.232C30.5295 67.16 30.6135 67.04 30.6615 66.872C30.7095 66.696 30.7335 66.456 30.7335 66.152V61.364C30.7335 61.164 30.7375 60.972 30.7455 60.788C30.7615 60.604 30.7735 60.46 30.7815 60.356C30.6455 60.364 30.4895 60.372 30.3135 60.38C30.1375 60.38 29.9975 60.384 29.8935 60.392V59.6C30.4215 59.592 30.9495 59.588 31.4775 59.588C32.0135 59.58 32.5455 59.576 33.0735 59.576C33.8015 59.576 34.4175 59.66 34.9215 59.828C35.4335 59.996 35.8175 60.26 36.0735 60.62C36.3375 60.972 36.4655 61.436 36.4575 62.012C36.4495 62.34 36.3735 62.66 36.2295 62.972C36.0855 63.284 35.8575 63.56 35.5455 63.8C35.2335 64.04 34.8175 64.228 34.2975 64.364C34.4495 64.444 34.5935 64.56 34.7295 64.712C34.8735 64.864 35.0055 65.032 35.1255 65.216L35.7735 66.212C35.9335 66.46 36.0815 66.668 36.2175 66.836C36.3535 66.996 36.4935 67.12 36.6375 67.208C36.7815 67.288 36.9535 67.332 37.1535 67.34V68H35.3295C35.1615 67.864 35.0015 67.696 34.8495 67.496C34.7055 67.296 34.5535 67.064 34.3935 66.8L33.5295 65.42C33.4255 65.252 33.3255 65.096 33.2295 64.952C33.1415 64.8 33.0415 64.672 32.9295 64.568C32.8015 64.576 32.6855 64.58 32.5815 64.58C32.4775 64.58 32.3655 64.576 32.2455 64.568V66.2C32.2455 66.424 32.2415 66.628 32.2335 66.812C32.2255 66.996 32.2135 67.14 32.1975 67.244C32.2855 67.236 32.3895 67.232 32.5095 67.232C32.6375 67.224 32.7615 67.22 32.8815 67.22C33.0015 67.212 33.0975 67.208 33.1695 67.208V68H29.8935ZM32.8695 63.848C33.3175 63.84 33.6855 63.772 33.9735 63.644C34.2695 63.516 34.4895 63.316 34.6335 63.044C34.7855 62.772 34.8615 62.424 34.8615 62C34.8615 61.64 34.8055 61.348 34.6935 61.124C34.5895 60.9 34.4455 60.728 34.2615 60.608C34.0855 60.488 33.8895 60.408 33.6735 60.368C33.4655 60.32 33.2575 60.296 33.0495 60.296C32.8415 60.296 32.6775 60.328 32.5575 60.392C32.4375 60.456 32.3535 60.572 32.3055 60.74C32.2655 60.9 32.2455 61.12 32.2455 61.4V63.812C32.3415 63.82 32.4415 63.828 32.5455 63.836C32.6495 63.844 32.7575 63.848 32.8695 63.848ZM40.5048 68.192C39.9288 68.192 39.4168 68.064 38.9688 67.808C38.5208 67.544 38.1728 67.176 37.9248 66.704C37.6768 66.224 37.5528 65.66 37.5528 65.012C37.5528 64.452 37.6768 63.928 37.9248 63.44C38.1728 62.952 38.5208 62.56 38.9688 62.264C39.4248 61.96 39.9528 61.808 40.5528 61.808C40.8888 61.808 41.2128 61.856 41.5248 61.952C41.8368 62.048 42.1168 62.208 42.3648 62.432C42.6128 62.656 42.8088 62.952 42.9528 63.32C43.1048 63.688 43.1768 64.136 43.1688 64.664L39.1368 64.736C39.1368 65.232 39.1928 65.672 39.3048 66.056C39.4248 66.432 39.6168 66.732 39.8808 66.956C40.1448 67.172 40.4928 67.28 40.9248 67.28C41.1168 67.28 41.3208 67.248 41.5368 67.184C41.7608 67.112 41.9808 67.008 42.1968 66.872C42.4128 66.728 42.6048 66.552 42.7728 66.344L43.2288 66.764C42.9648 67.148 42.6728 67.444 42.3528 67.652C42.0328 67.86 41.7128 68 41.3928 68.072C41.0728 68.152 40.7768 68.192 40.5048 68.192ZM39.1968 64.016H41.6928C41.6848 63.696 41.6368 63.428 41.5488 63.212C41.4688 62.988 41.3488 62.82 41.1888 62.708C41.0288 62.588 40.8328 62.528 40.6008 62.528C40.2088 62.528 39.8928 62.66 39.6528 62.924C39.4208 63.18 39.2688 63.544 39.1968 64.016ZM44.1056 68V67.364C44.3376 67.364 44.5016 67.316 44.5976 67.22C44.6936 67.116 44.7536 66.972 44.7776 66.788C44.8016 66.604 44.8136 66.396 44.8136 66.164V63.908C44.8136 63.764 44.8176 63.612 44.8256 63.452C44.8336 63.292 44.8456 63.128 44.8616 62.96C44.7336 62.968 44.5856 62.976 44.4176 62.984C44.2576 62.992 44.1256 63 44.0216 63.008V62.228C44.3816 62.228 44.6776 62.212 44.9096 62.18C45.1416 62.14 45.3216 62.092 45.4496 62.036C45.5776 61.98 45.6696 61.928 45.7256 61.88H46.2296C46.2456 61.968 46.2536 62.04 46.2536 62.096C46.2536 62.152 46.2576 62.212 46.2656 62.276C46.2736 62.332 46.2856 62.416 46.3016 62.528C46.4616 62.392 46.6456 62.272 46.8536 62.168C47.0696 62.056 47.2856 61.968 47.5016 61.904C47.7176 61.84 47.9176 61.808 48.1016 61.808C48.8216 61.808 49.3376 62.02 49.6496 62.444C49.9616 62.868 50.1176 63.544 50.1176 64.472V66.284C50.1176 66.412 50.1136 66.568 50.1056 66.752C50.1056 66.928 50.0936 67.1 50.0696 67.268C50.2056 67.252 50.3456 67.244 50.4896 67.244C50.6336 67.236 50.7536 67.232 50.8496 67.232V68H47.9336V67.364C48.1656 67.364 48.3296 67.316 48.4256 67.22C48.5296 67.116 48.5936 66.972 48.6176 66.788C48.6416 66.604 48.6536 66.396 48.6536 66.164L48.6416 64.46C48.6416 63.884 48.5536 63.456 48.3776 63.176C48.2096 62.888 47.9296 62.744 47.5376 62.744C47.3056 62.752 47.0776 62.808 46.8536 62.912C46.6296 63.016 46.4416 63.148 46.2896 63.308C46.2976 63.404 46.3016 63.504 46.3016 63.608C46.3016 63.712 46.3016 63.816 46.3016 63.92L46.2896 66.284C46.2896 66.412 46.2856 66.568 46.2776 66.752C46.2776 66.928 46.2656 67.1 46.2416 67.268C46.3696 67.252 46.5056 67.244 46.6496 67.244C46.8016 67.236 46.9256 67.232 47.0216 67.232V68H44.1056ZM53.8753 68.192C53.6513 68.192 53.4313 68.164 53.2153 68.108C53.0073 68.052 52.8153 67.948 52.6393 67.796C52.4713 67.644 52.3353 67.42 52.2313 67.124C52.1273 66.82 52.0753 66.42 52.0753 65.924L52.0993 62.828L51.2473 62.84V62C51.4873 61.992 51.7193 61.912 51.9433 61.76C52.1673 61.6 52.3633 61.392 52.5312 61.136C52.6993 60.88 52.8113 60.608 52.8673 60.32H53.5993L53.5873 62H55.2793V62.768L53.5873 62.804L53.5753 65.888C53.5753 66.128 53.5953 66.352 53.6353 66.56C53.6833 66.76 53.7633 66.92 53.8753 67.04C53.9953 67.16 54.1553 67.22 54.3553 67.22C54.5073 67.22 54.6793 67.172 54.8713 67.076C55.0713 66.98 55.2713 66.788 55.4713 66.5L55.9633 66.944C55.7633 67.248 55.5553 67.484 55.3393 67.652C55.1313 67.82 54.9273 67.944 54.7273 68.024C54.5353 68.104 54.3633 68.152 54.2113 68.168C54.0593 68.184 53.9473 68.192 53.8753 68.192Z" fill="white"/>
</svg>
